<svg id="Layer_1" data-name="Layer 1" xmlns="http://www.w3.org/2000/svg" viewBox="0 0 173.18 169.41">
  <title>close</title>
  <path d="M26.67,132.08a47.83,47.83,0,0,0,2.46-4.46c.21-.5-.18-1.31-.41-1.94a94.17,94.17,0,0,1-4.36-16.93,62.92,62.92,0,0,1,0-20.81A73.92,73.92,0,0,1,38.61,55.43a71.72,71.72,0,0,1,14-14.2,79.09,79.09,0,0,1,24.69-12.4c1.85-.56,3.7-1.1,5.56-1.59,1.65-.44,2.94.18,3.32,1.49a2.89,2.89,0,0,1-2,3.5c-3.77,1.22-7.62,2.23-11.28,3.72a90.9,90.9,0,0,0-10.94,5.38,59.7,59.7,0,0,0-13.2,10.51A79.06,79.06,0,0,0,37.35,67.05a63.57,63.57,0,0,0-6,13.76,60.82,60.82,0,0,0-2.56,21,63.82,63.82,0,0,0,3.78,17.64c.18.51.44,1,.77,1.71a19,19,0,0,0,1.2-1.54c2.5-4,5-8.1,7.48-12.14a4.59,4.59,0,0,0,.69-3c-1-11,2-21,7.63-30.41A63.5,63.5,0,0,1,63,59.17a5.61,5.61,0,0,1,1.57-1.09,2.59,2.59,0,0,1,2.56,4.42c-2,1.91-4,3.76-5.87,5.79A49.74,49.74,0,0,0,50.09,87.23a5.27,5.27,0,0,1-.63,1c-1.09,1.74-2.23,3.47-3.25,5.25A2.28,2.28,0,0,0,46.49,96a1.64,1.64,0,0,0,3,0c2.71-4.35,5.36-8.74,8.08-13.09,2.58-4.15,5.21-8.28,7.83-12.41Q72.19,59.76,79,49q6.39-10.08,12.74-20.16c1.55-2.47,3.06-5,4.6-7.46A4.4,4.4,0,0,1,99.27,19a3.24,3.24,0,0,1,3.53,1.47c1.63,2.51,3.2,5.05,4.8,7.58q8.5,13.43,17,26.85C128,60.29,131.58,65.6,135,71c4.79,7.62,9.5,15.29,14.24,22.94a23.88,23.88,0,0,0,1.55,2.27,1.43,1.43,0,0,0,2.57-.2,2.53,2.53,0,0,0,.3-2.78c-.91-1.58-1.86-3.13-2.79-4.7a11.09,11.09,0,0,1-1.15-2.07,51.41,51.41,0,0,0-7-13.3,60.3,60.3,0,0,0-10-10.65,2.61,2.61,0,0,1,3.35-4,60.44,60.44,0,0,1,14.36,17.07,53.36,53.36,0,0,1,6.23,16.27,43.81,43.81,0,0,1,.55,12.52,4.79,4.79,0,0,0,.74,3.27c2.68,4.13,5.24,8.34,7.85,12.52.19.3.44.57.83,1.08.4-.91.74-1.59,1-2.3a70.45,70.45,0,0,0,3.11-13.55,56.91,56.91,0,0,0-.22-15.91,61,61,0,0,0-4.58-15.76,76.49,76.49,0,0,0-9-15.33,69.5,69.5,0,0,0-18.82-17,77,77,0,0,0-15-7.08c-2.26-.79-4.59-1.39-6.9-2.08a3.34,3.34,0,0,1-2.43-1.84,2.43,2.43,0,0,1,2.81-3.31A73.51,73.51,0,0,1,129,31a77.19,77.19,0,0,1,19.66,11.39A75.17,75.17,0,0,1,162,56.47,78.85,78.85,0,0,1,171.4,73.2a66.47,66.47,0,0,1,3.72,12.54,60.9,60.9,0,0,1,1.26,14.69,72.78,72.78,0,0,1-2.15,14.62c-.9,3.54-2,7-3,10.54a3.57,3.57,0,0,0,.37,3.61c.44.55.73,1.22,1.13,1.82.55.83.91.82,1.31-.12,1-2.34,2-4.68,2.88-7.07a77.49,77.49,0,0,0,4.31-25A69,69,0,0,0,178,77.68a81,81,0,0,0-41.53-49.06,84.66,84.66,0,0,0-24.85-7.78q-1.71-.27-3.39-.66a2.67,2.67,0,0,1-1.87-2.93,2.32,2.32,0,0,1,2.37-2.08c2.14.17,4.28.46,6.4.83a86.63,86.63,0,0,1,26.36,8.9,84.43,84.43,0,0,1,17.35,12.32A87.69,87.69,0,0,1,173.9,55.27a80.41,80.41,0,0,1,12.61,44.22,90.1,90.1,0,0,1-2,17.15,83.48,83.48,0,0,1-7.06,20.84,1.55,1.55,0,0,0,.12,1.77c.88,1.33,1.7,2.71,2.46,4.11a3.77,3.77,0,0,1-3.3,5.53,34.54,34.54,0,0,1-3.67,0,2.92,2.92,0,0,0-2.72,1.35c-2.16,2.61-4.35,5.2-6.67,7.67a80.55,80.55,0,0,1-12.27,10.53,86.43,86.43,0,0,1-15,8.36,91.94,91.94,0,0,1-23.5,6.75,84.43,84.43,0,0,1-16.42.95,89,89,0,0,1-29.35-6.15,90.4,90.4,0,0,1-15.31-7.8,87.42,87.42,0,0,1-12.12-9.28,74.4,74.4,0,0,1-10-10.79,3.65,3.65,0,0,0-3.47-1.69c-1.1.06-2.2.11-3.3.12A3.65,3.65,0,0,1,19.54,144a40.91,40.91,0,0,1,2.75-4.86,1.67,1.67,0,0,0,.14-1.77,96.23,96.23,0,0,1-8.87-33.16A79.43,79.43,0,0,1,27.94,52.36,86.82,86.82,0,0,1,40.08,38.12,84.75,84.75,0,0,1,63.79,22.31,88.67,88.67,0,0,1,83.18,16.4c2.29-.43,4.58-.85,6.88-1.21,2-.32,3.52.94,3.39,2.74a2.93,2.93,0,0,1-2.57,2.48c-5.23,1.12-10.52,2.06-15.66,3.51A75.24,75.24,0,0,0,50,37,80.07,80.07,0,0,0,31.49,57.09,76.77,76.77,0,0,0,20.27,83.58a71.17,71.17,0,0,0-1.19,22.69,77.65,77.65,0,0,0,6.74,24.51A12.54,12.54,0,0,0,26.67,132.08Zm146.68,11.16C149.2,104,124.66,65.43,99.88,26.73c-24.5,38.9-49.15,77.4-73.29,116.51ZM41.74,150.53a8.48,8.48,0,0,0-2.23,1c-.79.66-.56,1.37.56,2.49A86.53,86.53,0,0,0,56.4,167a81.31,81.31,0,0,0,24.61,10,94.79,94.79,0,0,0,14.43,2.15,75.51,75.51,0,0,0,15.68-.74,87.22,87.22,0,0,0,15.62-3.55,82,82,0,0,0,27.46-15.61c2.05-1.78,4-3.66,6-5.55a1.55,1.55,0,0,0-.71-2.8,4.54,4.54,0,0,0-4.2.91c-2.13,1.89-4.32,3.73-6.59,5.45A80.16,80.16,0,0,1,129.75,168a83.66,83.66,0,0,1-18.25,5.07,75.76,75.76,0,0,1-22.35.17,78.85,78.85,0,0,1-21.81-6.45,85.26,85.26,0,0,1-22.57-15A5.1,5.1,0,0,0,41.74,150.53ZM101.6,168.8c2.36-.23,6.65-.4,10.84-1.14a68.83,68.83,0,0,0,25.87-9.93c3.41-2.22,6.63-4.73,9.91-7.14.29-.22.63-.8.53-1.05s-.66-.53-1.05-.61a12.37,12.37,0,0,0-1.62-.09,8.73,8.73,0,0,0-6.22,1.69,69.89,69.89,0,0,1-29.45,12.18,61.47,61.47,0,0,1-22.1-.16,72.71,72.71,0,0,1-28.22-11.9c-1-.71-1.91-1.79-3.33-1.8s-2.87,0-4.3.07a4.35,4.35,0,0,0-1.41.71,5.71,5.71,0,0,0,.86,1.13A81.72,81.72,0,0,0,68,161.25C78,166.17,88.56,168.62,101.6,168.8Zm-1.48-10.38c2-.15,4.84-.23,7.65-.6a60.79,60.79,0,0,0,16.2-4.45c1.77-.76,3.49-1.65,5.19-2.56a1.37,1.37,0,0,0,.59-1.11c-.07-.34-.6-.62-1-.83a1.57,1.57,0,0,0-.79-.09c-1.75,0-3.5,0-5.25,0a5.72,5.72,0,0,0-2.08.19,52.19,52.19,0,0,1-24.35,4.22A47.75,47.75,0,0,1,82,150.06a15.21,15.21,0,0,0-3.82-1.28,36.57,36.57,0,0,0-6.19,0c-.54,0-1,.67-1.58,1,.33.43.57,1,1,1.26,1.36.75,2.78,1.41,4.2,2A62.92,62.92,0,0,0,100.12,158.42Z" transform="translate(-13.34 -15.14)"/>
  <path d="M33,99.17a60.09,60.09,0,0,1,8.32-29.53,67.55,67.55,0,0,1,13.25-16.7A71.3,71.3,0,0,1,75.05,40.42a2.35,2.35,0,0,1,3.11,1.15,2.57,2.57,0,0,1-.93,3.37c-1.22.67-2.51,1.21-3.76,1.82a62.32,62.32,0,0,0-17.2,11.89A66.77,66.77,0,0,0,45.74,72.56a55.89,55.89,0,0,0-6.52,17,53.87,53.87,0,0,0-1.1,12.6A2.83,2.83,0,0,1,36.64,105a2.24,2.24,0,0,1-2.67-.26A3,3,0,0,1,33,103,35.61,35.61,0,0,1,33,99.17Z" transform="translate(-13.34 -15.14)"/>
  <path d="M167,100.05c0,.85,0,1.71,0,2.56a2.63,2.63,0,0,1-2.5,2.68,2.53,2.53,0,0,1-2.6-2.87c.44-12-3.18-22.93-9.53-33a59.91,59.91,0,0,0-20.57-19.78c-2.83-1.66-5.85-3-8.78-4.52a2.49,2.49,0,0,1-.43-4.39,2.55,2.55,0,0,1,2.06-.28c2.57,1,5.13,2.16,7.59,3.45a62.5,62.5,0,0,1,22.48,19.66,68.88,68.88,0,0,1,9.68,19.31A54.84,54.84,0,0,1,167,100.05Z" transform="translate(-13.34 -15.14)"/>
  <path d="M100,136.16H85.36c-7.17,0-14.34,0-21.51,0q-8.41,0-16.83.07a3.37,3.37,0,0,1-3.24-1.69,3.42,3.42,0,0,1,.25-3.74q4.06-6.34,8.09-12.71Q59.58,106.3,67,94.47q8.83-14,17.68-28c4-6.35,8-12.72,12-19.06a6.9,6.9,0,0,1,1.78-1.91,2.63,2.63,0,0,1,3.88.63c1.38,2,2.62,4,3.9,6.08q5.94,9.44,11.86,18.87,7.58,12,15.14,24c2.7,4.27,5.44,8.52,8.15,12.79L156,130.84a3.37,3.37,0,0,1,.1,3.66,3.25,3.25,0,0,1-3.21,1.68c-7.4,0-14.8,0-22.21,0H100Zm-.08-83.35-49,77.71h98.22Z" transform="translate(-13.34 -15.14)"/>
  <path d="M120,104c-.07,11.26-8.38,20.21-20,20.25a20.08,20.08,0,1,1-.21-40.16C111.32,84.18,120,92.76,120,104Z" transform="translate(-13.34 -15.14)"/>
  <path d="M139.08,125H117.2c1.34-1.74,2.6-3.4,3.9-5a1.2,1.2,0,0,1,.82-.25h7.23c-.71-1.12-1.23-2-1.77-2.8-.85-1.32-2.14-2.53-2.43-4s.5-2.93.76-4.42c.14-.8.17-1.62.26-2.43,0-.32.09-.63.14-.94l.33-.11Z" transform="translate(-13.34 -15.14)"/>
  <path d="M82.67,125H60.88c4.22-6.76,8.19-13.51,12.65-19.95l.25.08c.07.72.11,1.45.22,2.16.23,1.38.43,2.76.78,4.1a2.82,2.82,0,0,1-.36,2.56c-1.13,1.65-2.15,3.38-3.2,5.08-.08.13-.14.28-.28.58,2,0,4,.06,5.87,0a2.7,2.7,0,0,1,2.62,1.26C80.39,122.23,81.5,123.51,82.67,125Z" transform="translate(-13.34 -15.14)"/>
  <path d="M99.92,63.7c3.49,5.39,6.85,10.6,10.36,16-1.55-.45-2.83-.85-4.12-1.18a25.82,25.82,0,0,0-2.89-.55,1.94,1.94,0,0,1-1.69-1,27.82,27.82,0,0,0-1.81-2.63c-.69,1.08-1.26,2-1.91,2.92a1.89,1.89,0,0,1-1,.7c-2.32.56-4.65,1.06-7,1.59Z" transform="translate(-13.34 -15.14)"/>
</svg>
