<?xml version="1.0" encoding="UTF-8"?>
<svg id="Layer_1" data-name="Layer 1" xmlns="http://www.w3.org/2000/svg" viewBox="0 0 159.01 139.72">
  <defs>
    <style>
      .cls-1 {
        fill: #fff;
      }
    </style>
  </defs>
  <path d="M142.36,120.5c1.27-.75,2.42-1.42,3.55-2.1,1.05-.63,2.05-1.35,3.14-1.89,.93-.46,1.95-.51,2.71,.39,.61,.72,.57,2-.31,2.8-1.34,1.22-2.74,2.43-4.3,3.32-2.46,1.4-5.08,2.5-7.6,3.79-.4,.21-.67,.75-.9,1.19-1.33,2.6-3.41,4.18-6.27,4.78-1.69,.35-3.11-.16-4.42-1.19-1.43-1.13-1.45-1.06-2.45,.45-2.24,3.36-5.99,4.87-9.58,2.33-.91-.64-1.42-1.84-2.12-2.78-.11-.15-.22-.31-.66-.94-.25,.5-.36,.92-.61,1.2-2.7,2.99-8.3,2.36-10.22-1.19-.51-.95-1.01-.97-1.9-.61-5.56,2.26-11.35,3.62-17.28,4.48-5.36,.78-10.74,.88-16.07,.19-3.75-.48-7.44-1.53-11.14-2.38-1.31-.3-2.58-.76-3.85-1.21-1.43-.5-1.78-.35-2.32,1.05-.82,2.12-2.14,3.79-4.4,4.5-2.21,.69-4.13,.05-5.85-1.38-.32-.27-.62-.56-.83-.75-1.08,1.34-1.95,2.72-3.12,3.77-1.95,1.75-4.82,1.63-6.85-.04-.67-.55-1.3-1.14-1.92-1.75-.45-.43-.83-.62-1.22,.05-2.79,4.82-8.89,3.62-11.24-.54-.93-1.64-2.3-1.93-3.72-2.52-2.36-.98-4.7-2.01-7.01-3.11-.76-.36-1.55-.88-2.05-1.53-.38-.5-.66-1.52-.39-1.98,.35-.6,1.3-1.25,1.93-1.19,1.18,.11,2.34,.65,3.46,1.14,1.22,.53,2.37,1.19,3.77,1.9,0-1.18,0-2.1,0-3.02-.04-5.2,.95-10.2,3.48-14.76,1.79-3.22,4.02-6.15,7.26-8.14,.34-.21,.64-.94,.54-1.33-1.31-5.15-1.68-10.4-1.58-15.67,.11-5.67,.89-11.25,2.8-16.67,1.94-5.52,4.32-10.8,7.3-15.82,3.26-5.49,7.42-10.24,12.26-14.38,4.97-4.25,10.44-7.73,16.6-9.94,3.66-1.31,7.49-2.2,11.29-3.11,5.2-1.25,10.5-1.33,15.82-.96,4.66,.32,9.15,1.43,13.55,2.88,4.23,1.39,8.18,3.37,11.98,5.7,5.87,3.59,10.85,8.13,15.02,13.58,4.18,5.47,7.51,11.39,9.94,17.86,2.26,6.03,3.54,12.18,3.77,18.62,.24,6.58-.46,13.05-1.91,19.43-.37,1.61-.08,2.71,.66,4.06,2.17,3.94,3.59,8.11,3.13,12.72-.01,.11,.05,.23,.16,.69Zm-8.14-19.14c.17-.73,.33-1.22,.4-1.71,.23-1.73,.42-3.46,.62-5.19,.59-4.98,.61-9.99,.04-14.95-.53-4.6-1.67-9.11-3.43-13.44-1.63-4-3.61-7.81-5.94-11.45-1.99-3.11-4.29-5.94-6.85-8.6-2.47-2.56-5.11-4.92-8.05-6.85-2.83-1.86-5.86-3.41-8.86-4.99-4.29-2.26-8.96-3.28-13.74-3.84-5.25-.62-10.5-.82-15.73,.12-3.02,.54-6.11,.97-9.02,1.91-4.59,1.48-9.07,3.29-13.12,6.02-5.08,3.43-9.73,7.32-13.43,12.25-3.44,4.57-6.21,9.53-8.4,14.81-2.06,4.95-3.7,10.05-3.94,15.44-.18,3.9-.09,7.83,.12,11.73,.12,2.32,.7,4.61,1.07,6.92,.14,.86,.65,1.14,1.51,1.12,1.49-.03,3-.03,4.49,.11,5.64,.54,10.1,3.36,13.59,7.64,3.92,4.82,5.68,10.55,6.22,16.67,.09,1.06,.5,1.55,1.5,1.78,2.77,.65,5.52,1.38,8.28,2.05,6.84,1.65,13.77,2.16,20.74,1.26,3.56-.46,7.09-1.21,10.6-1.99,2.04-.45,4.01-1.21,5.99-1.88,.7-.24,1.37-.52,1.33-1.55-.17-3.66,.18-7.26,1.42-10.76,1.78-5.04,4.51-9.4,8.78-12.71,5.79-4.48,14.75-5.54,21.32-1.44,.76,.47,1.53,.93,2.5,1.53Zm-103.78,3.45c-4.09-.44-8.82,1.93-11.16,4.78-4.31,5.25-5.76,11.26-4.87,17.88,.34,2.55,.95,5.09,2.85,7.03,1.08,1.1,2.39,1.75,3.96,1.3,1.51-.44,2.18-1.69,2.35-3.13,.12-1.04-.05-2.12-.12-3.18-.14-2.13-.37-4.26-.42-6.39-.03-1.39,.67-2.14,1.72-2.14,1.22,0,1.25,1.05,1.43,1.85,.3,1.31,.44,2.66,.74,3.97,.56,2.45,.73,5,2.44,7.1,.98,1.2,2.09,1.88,3.57,1.56,1.34-.29,1.82-1.48,2.26-2.68,.7-1.93,.25-3.84,.06-5.76-.22-2.2-.56-4.39-.78-6.59-.09-.95,.12-1.93,1.2-2.18,1.15-.27,1.77,.49,2.05,1.51,.4,1.45,.7,2.92,1.13,4.36,.71,2.38,1.4,4.77,2.3,7.08,.5,1.26,1.76,1.78,3.14,1.73,1.21-.04,1.96-.77,2.44-1.79,.24-.49,.44-1.03,.53-1.56,1.23-6.83-.74-12.81-4.87-18.2-3.02-3.95-7-6.15-11.96-6.55Zm107.52,12.99c.18-4.11-1.34-8.09-4.6-11.31-4.18-4.13-8.93-6.7-15.03-4.76-3.14,1-6.01,2.56-8.12,5.15-3.46,4.25-5.37,9.2-5.93,14.63-.24,2.33-.15,4.68,1.08,6.81,.98,1.69,2.91,2.22,4.42,1,.82-.66,1.53-1.64,1.89-2.62,.74-2.03,1.07-4.22,1.85-6.24,.64-1.67,1.6-3.25,2.6-4.75,.28-.43,1.25-.68,1.82-.57,.83,.16,.92,.99,.72,1.75-.15,.57-.32,1.14-.53,1.7-1.21,3.18-1.98,6.43-1.78,9.86,.09,1.61,1.07,3.26,2.31,3.59,1.58,.43,2.58-.52,3.51-1.62,1.55-1.84,2.21-4.07,2.91-6.3,.52-1.65,1.13-3.29,1.87-4.85,.19-.41,1.07-.74,1.57-.67,.36,.05,.77,.8,.87,1.3,.13,.64-.06,1.33-.07,2-.02,1.77-.14,3.55,.04,5.3,.13,1.29,1.53,2.24,2.66,2.02,1.39-.27,2.66-.86,3.46-2.09,1.75-2.69,2.71-5.61,2.48-9.34Z"/>
  <path d="M146.61,5.78c-.08,2.52-.75,4.38-1.8,6.15-3.58,5.99-7.66,11.62-12.28,16.84-.66,.75-1.55,1.35-2.44,1.82-.91,.48-1.92,.27-2.64-.46-.7-.72-1.19-1.66-.77-2.7,2.05-5.09,4.02-10.23,6.26-15.24,1.1-2.47,2.62-4.77,4.13-7.02,1.74-2.58,5.02-3.54,7.37-2.35,1.4,.7,2.09,1.87,2.16,2.97Z"/>
  <path d="M139.99,44.26c-2.26-.15-3.32-1.71-2.06-3.52,1.18-1.69,2.68-3.23,4.29-4.53,2.63-2.13,5.43-4.07,8.24-5.96,1.38-.93,3.02-1.13,4.67-.59,2.49,.81,3.4,3.64,1.69,5.62-.96,1.11-2.12,2.17-3.39,2.87-3.25,1.79-6.6,3.42-9.96,5.02-1.08,.52-2.31,.73-3.47,1.08Z"/>
  <path d="M18.05,49.44c-2.41-.57-4.83-1.09-7.22-1.75-1.32-.36-2.61-.88-3.86-1.47-1.94-.91-3.08-2.92-2.78-4.68,.27-1.61,1.52-2.74,3.24-3.02,2.33-.38,4.39,.43,6.34,1.51,2.11,1.17,4.15,2.47,6.21,3.74,.37,.23,.71,.51,1.02,.82,.65,.65,1.33,1.32,1.02,2.37-.38,1.28-1.25,2.03-2.59,2.15-.43,.04-.87,0-1.31,0-.02,.11-.04,.21-.07,.32Z"/>
  <path d="M20.52,23.12c.08-2.45,2.66-3.85,4.89-2.71,1.62,.83,2.61,2.27,3.35,3.73,1.33,2.64,2.41,5.41,3.41,8.19,.69,1.91,.03,3.35-1.71,3.56-.99,.12-2.39-.46-3.1-1.21-1.55-1.66-2.84-3.58-4.11-5.48-.85-1.27-1.51-2.68-2.17-4.06-.3-.63-.39-1.35-.57-2.03Z"/>
  <path d="M76.89,7.93c.25-1.95,.44-3.91,.77-5.85,.22-1.28,1.14-2.03,2.26-2.07,1.06-.05,2.19,.68,2.38,1.93,.22,1.42,.15,2.9,.07,4.35-.09,1.65-.28,3.31-.55,4.95-.24,1.43-1.22,2.23-2.39,2.17-1.12-.06-2.1-1.03-2.27-2.37-.12-1.02-.11-2.05-.16-3.08-.04,0-.08-.01-.12-.02Z"/>
  <path d="M155.32,84.16c-1.86-.42-3.79-.66-5.57-1.31-1.48-.54-1.48-2.76-.05-3.5,.76-.39,1.74-.55,2.61-.54,1.49,.03,2.98,.27,4.47,.45,1.42,.17,2.27,1.01,2.22,2.15-.05,1.25-1.16,2.4-2.44,2.48-.39,.03-.79,0-1.19,0-.02,.09-.04,.18-.06,.27Z"/>
  <path d="M3.81,91.33c-2.45-.06-3.68-.83-3.8-1.93-.15-1.4,.98-2.65,2.83-2.94,1.48-.23,2.97-.36,4.47-.43,1.44-.06,2.22,.61,2.44,1.89,.2,1.14-.24,1.91-1.63,2.33-1.65,.51-3.35,.84-4.31,1.07Z"/>
  <path class="cls-1" d="M134.21,101.36c-.97-.59-1.74-1.05-2.5-1.53-6.57-4.1-15.53-3.05-21.32,1.44-4.27,3.31-6.99,7.67-8.78,12.71-1.24,3.5-1.58,7.1-1.42,10.76,.05,1.03-.63,1.31-1.33,1.55-1.98,.68-3.96,1.43-5.99,1.88-3.51,.78-7.04,1.53-10.6,1.99-6.98,.9-13.9,.39-20.74-1.26-2.76-.67-5.51-1.39-8.28-2.05-.99-.23-1.4-.73-1.5-1.78-.54-6.12-2.3-11.85-6.22-16.67-3.49-4.28-7.95-7.09-13.59-7.64-1.49-.14-2.99-.15-4.49-.11-.87,.02-1.37-.26-1.51-1.12-.38-2.31-.95-4.6-1.07-6.92-.21-3.9-.29-7.83-.12-11.73,.24-5.39,1.89-10.49,3.94-15.44,2.19-5.28,4.96-10.23,8.4-14.81,3.7-4.93,8.35-8.82,13.43-12.25,4.05-2.73,8.53-4.55,13.12-6.02,2.91-.93,5.99-1.36,9.02-1.91,5.23-.94,10.48-.74,15.73-.12,4.78,.56,9.44,1.58,13.74,3.84,3,1.58,6.03,3.13,8.86,4.99,2.95,1.94,5.59,4.3,8.05,6.85,2.57,2.66,4.87,5.48,6.85,8.6,2.33,3.64,4.31,7.45,5.94,11.45,1.76,4.32,2.9,8.83,3.43,13.44,.57,4.96,.55,9.96-.04,14.95-.2,1.73-.4,3.46-.62,5.19-.07,.5-.22,.98-.4,1.71Zm-25.36-25.49c-.28-1.71-.57-4.76-1.29-7.7-1.75-7.11-5.35-13.16-11.04-17.83-4.38-3.59-9.36-6.11-14.94-7.17-5.27-.99-10.57-1.06-15.85,.27-5.46,1.37-10.37,3.76-14.6,7.49-5.53,4.88-9.11,11-11.08,18.04-1.43,5.08-1.65,10.32-1.1,15.55,.53,5.03,2.72,9.49,5.29,13.75,2.02,3.36,4.88,6,8,8.31,5.11,3.8,10.99,5.66,17.25,6.25,3.96,.37,7.9,.15,11.85-.8,4.65-1.12,8.89-2.85,12.74-5.74,4.58-3.43,7.97-7.78,10.53-12.79,2.6-5.09,3.86-10.6,4.25-17.64Z"/>
  <path class="cls-1" d="M30.44,104.81c4.96,.4,8.93,2.61,11.96,6.55,4.13,5.39,6.1,11.37,4.87,18.2-.1,.54-.3,1.07-.53,1.56-.49,1.02-1.24,1.75-2.44,1.79-1.38,.05-2.64-.47-3.14-1.73-.91-2.3-1.59-4.7-2.3-7.08-.43-1.44-.73-2.91-1.13-4.36-.28-1.01-.9-1.77-2.05-1.51-1.09,.25-1.3,1.23-1.2,2.18,.22,2.2,.55,4.39,.78,6.59,.2,1.92,.64,3.83-.06,5.76-.43,1.2-.91,2.39-2.26,2.68-1.48,.32-2.59-.37-3.57-1.56-1.71-2.1-1.88-4.65-2.44-7.1-.3-1.31-.44-2.66-.74-3.97-.18-.8-.22-1.85-1.43-1.85-1.06,0-1.76,.75-1.72,2.14,.05,2.13,.29,4.26,.42,6.39,.07,1.06,.23,2.14,.12,3.18-.16,1.44-.83,2.69-2.35,3.13-1.57,.46-2.88-.19-3.96-1.3-1.9-1.95-2.51-4.49-2.85-7.03-.89-6.62,.56-12.63,4.87-17.88,2.34-2.85,7.08-5.22,11.16-4.78Z"/>
  <path class="cls-1" d="M137.95,117.81c.24,3.73-.72,6.65-2.48,9.34-.8,1.23-2.07,1.82-3.46,2.09-1.13,.22-2.52-.73-2.66-2.02-.18-1.75-.05-3.53-.04-5.3,0-.67,.2-1.36,.07-2-.1-.5-.51-1.25-.87-1.3-.5-.07-1.38,.26-1.57,.67-.74,1.56-1.35,3.2-1.87,4.85-.7,2.23-1.35,4.46-2.91,6.3-.93,1.1-1.93,2.06-3.51,1.62-1.24-.34-2.22-1.99-2.31-3.59-.2-3.43,.57-6.68,1.78-9.86,.21-.55,.38-1.12,.53-1.7,.2-.76,.11-1.59-.72-1.75-.57-.11-1.54,.14-1.82,.57-1,1.5-1.95,3.07-2.6,4.75-.78,2.02-1.11,4.21-1.85,6.24-.36,.98-1.08,1.96-1.89,2.62-1.52,1.22-3.44,.7-4.42-1-1.24-2.13-1.32-4.48-1.08-6.81,.56-5.43,2.47-10.38,5.93-14.63,2.11-2.59,4.98-4.15,8.12-5.15,6.1-1.95,10.85,.63,15.03,4.76,3.26,3.22,4.78,7.19,4.6,11.31Z"/>
  <path d="M108.86,75.88c-.39,7.05-1.64,12.55-4.25,17.64-2.56,5-5.95,9.36-10.53,12.79-3.85,2.89-8.09,4.62-12.74,5.74-3.95,.95-7.88,1.18-11.85,.8-6.26-.59-12.14-2.45-17.25-6.25-3.12-2.32-5.98-4.96-8-8.31-2.56-4.26-4.75-8.72-5.29-13.75-.55-5.23-.33-10.47,1.1-15.55,1.98-7.04,5.55-13.16,11.08-18.04,4.23-3.73,9.14-6.12,14.6-7.49,5.28-1.33,10.58-1.27,15.85-.27,5.58,1.05,10.57,3.57,14.94,7.17,5.69,4.67,9.3,10.72,11.04,17.83,.72,2.94,1.01,5.99,1.29,7.7Zm-42.6-26.07c-4.74,.27-9.1,2.33-11.84,7.04-2.23,3.84-2.37,7.83,.14,11.65,3.28,4.98,10.5,5.2,15.3,1.66,2.5-1.84,4.26-4.23,5.36-7.17,2.55-6.8-1.45-13.15-8.96-13.18Zm-11.59,23.19c-.09-2.95-1.83-5.01-4.49-5.15-2.4-.13-4.99,2.81-4.91,5.47,.06,2.17,1.58,4.66,4.45,4.55,2.44-.09,4.84-2.38,4.95-4.87Zm17.85,4.79c1.64,.03,3.22-1.46,3.31-3.1,.08-1.49-1.3-3.05-2.71-3.08-1.74-.04-3.4,1.57-3.46,3.36-.05,1.54,1.22,2.79,2.86,2.81Z"/>
  <path class="cls-1" d="M66.26,49.81c7.5,.03,11.5,6.38,8.96,13.18-1.1,2.94-2.86,5.33-5.36,7.17-4.8,3.54-12.02,3.31-15.3-1.66-2.51-3.81-2.37-7.8-.14-11.65,2.73-4.71,7.1-6.77,11.84-7.04Z"/>
  <path class="cls-1" d="M54.67,73c-.11,2.49-2.51,4.77-4.95,4.87-2.87,.11-4.39-2.38-4.45-4.55-.08-2.66,2.51-5.6,4.91-5.47,2.66,.15,4.41,2.2,4.49,5.15Z"/>
  <path class="cls-1" d="M72.52,77.79c-1.64-.03-2.91-1.27-2.86-2.81,.05-1.79,1.71-3.41,3.46-3.36,1.42,.03,2.79,1.59,2.71,3.08-.08,1.64-1.67,3.13-3.31,3.1Z"/>
</svg>