<svg id="Layer_1" data-name="Layer 1" xmlns="http://www.w3.org/2000/svg" viewBox="0 0 134.08 131.07">
  <title>open</title>
  <path d="M109.57,25.07a5,5,0,0,1,3.12,1.6,4.2,4.2,0,0,1-3.88,6.82,4.14,4.14,0,0,1-3.47-3.43,4.33,4.33,0,0,1,2.88-4.73,5.36,5.36,0,0,0,.54-.26Z" transform="translate(-42.38 -25.07)"/>
  <path d="M109.44,127.38H61.22a2.22,2.22,0,0,1-2.16-1.1A2.12,2.12,0,0,1,59.3,124q8.43-14.3,16.84-28.59C80.31,88.32,84.43,81.16,88.57,74l12.55-21.54,6.51-11.24c1.07-1.85,2.75-1.83,3.83,0l14.21,24.46q10.14,17.4,20.29,34.77,6.81,11.63,13.63,23.24a4.08,4.08,0,0,1,.6,1.47,2,2,0,0,1-2.2,2.17H109.44Zm.28-79.53-.3,0-43.77,75h87.8Q131.52,85.24,109.72,47.85Z" transform="translate(-42.38 -25.07)"/>
  <path d="M164.77,89.58a50,50,0,0,1-1.9,13.55c-.25.93-.45,1.88-.74,2.79a1.74,1.74,0,0,1-2.16,1.42,2.06,2.06,0,0,1-1.66-2.16,8.12,8.12,0,0,1,.37-1.8,45.74,45.74,0,0,0-2.47-33.07,48.38,48.38,0,0,0-8.93-13.42A52.12,52.12,0,0,0,126,43.36c-.71-.25-1.43-.47-2.12-.76A1.89,1.89,0,1,1,125.06,39a56.2,56.2,0,0,1,15.08,6.77A51.61,51.61,0,0,1,150,53.71a53.91,53.91,0,0,1,8.87,12.62,51.82,51.82,0,0,1,5.65,18.61C164.67,86.48,164.69,88,164.77,89.58Z" transform="translate(-42.38 -25.07)"/>
  <path d="M54.22,90.59a51.8,51.8,0,0,1,6.46-25.37A52.35,52.35,0,0,1,85.93,42c2.53-1.13,5.2-1.94,7.81-2.88a1.82,1.82,0,0,1,2.54,1.11,2,2,0,0,1-1.46,2.49,63.8,63.8,0,0,0-11.36,5A49.07,49.07,0,0,0,63.27,69.25a47.32,47.32,0,0,0-4.76,16.23,46.83,46.83,0,0,0,.77,14.27c.32,1.57.74,3.11,1.15,4.66a2.21,2.21,0,0,1-1.62,3,2,2,0,0,1-2.22-1.64q-.54-1.85-1-3.72A57.54,57.54,0,0,1,54.22,90.59Z" transform="translate(-42.38 -25.07)"/>
  <path d="M108.87,145.43a51.75,51.75,0,0,1-31.06-10.34l-.45-.34c-1.06-.84-1.31-1.7-.72-2.53a2.23,2.23,0,0,1,3.12-.59c1.47,1,2.92,2,4.43,2.89a48.85,48.85,0,0,0,19.11,6.58,48.1,48.1,0,0,0,24.1-2.95A51.18,51.18,0,0,0,139,131.87a2.41,2.41,0,0,1,2.08-.59,1.89,1.89,0,0,1,1.49,1.42,1.67,1.67,0,0,1-.65,1.86c-1.77,1.23-3.51,2.53-5.38,3.62A53.15,53.15,0,0,1,108.87,145.43Z" transform="translate(-42.38 -25.07)"/>
  <path d="M42.39,87.89a4.08,4.08,0,0,1,3.91-4.22,4.24,4.24,0,0,1,4.42,4A4.11,4.11,0,0,1,46.78,92,4.16,4.16,0,0,1,42.39,87.89Z" transform="translate(-42.38 -25.07)"/>
  <path d="M168.15,88a4.15,4.15,0,1,1,4.24,4A4,4,0,0,1,168.15,88Z" transform="translate(-42.38 -25.07)"/>
  <path d="M105.34,152a4.15,4.15,0,1,1,4.12,4.1A4.29,4.29,0,0,1,105.34,152Z" transform="translate(-42.38 -25.07)"/>
  <path d="M65.58,76.79c.47.14.76.2,1,.3l9,3.53c.81.32,1.17.94.9,1.54a1,1,0,0,1-1.49.49l-7.37-2.87c-.79-.31-1.57-.66-2.36-1a.83.83,0,0,1-.54-1.16C64.92,77.27,65.33,77,65.58,76.79Z" transform="translate(-42.38 -25.07)"/>
  <path d="M143.05,82.84c-.24-.27-.62-.53-.76-.89a.89.89,0,0,1,.61-1.15c1.28-.53,2.57-1,3.86-1.56,1.78-.71,3.57-1.39,5.36-2.09a5.35,5.35,0,0,1,.67-.24,1.07,1.07,0,0,1,1.44.65c.23.62-.17,1-.7,1.25-2.24.92-4.49,1.81-6.75,2.7-.84.34-1.69.66-2.54,1C143.92,82.6,143.58,82.68,143.05,82.84Z" transform="translate(-42.38 -25.07)"/>
  <path d="M84.57,70.37a7.55,7.55,0,0,1-.89-.68q-3.59-3.63-7.14-7.28c-.41-.41-.78-.87-.22-1.44s1-.45,1.63.13q2.35,2.3,4.66,4.64c.94,1,1.88,1.91,2.74,2.93a1.21,1.21,0,0,1,.1,1.07C85.34,70,84.9,70.15,84.57,70.37Z" transform="translate(-42.38 -25.07)"/>
  <path d="M142.86,61.76a3.38,3.38,0,0,1-.5.77c-2.24,2.3-4.48,4.58-6.75,6.85-.42.42-.82,1-1.57.72a.82.82,0,0,1-.5-1.32,6.13,6.13,0,0,1,.8-.89c2-2.11,4.1-4.23,6.15-6.33a4.88,4.88,0,0,1,.92-.78C142,60.38,142.83,60.83,142.86,61.76Z" transform="translate(-42.38 -25.07)"/>
  <path d="M76.54,78c-.4-.15-.68-.23-.94-.36l-7.51-3.76c-.56-.29-1-.64-.71-1.38.24-.58.8-.76,1.57-.4,2.55,1.23,5.08,2.48,7.61,3.73.21.11.5.23.57.42a1.78,1.78,0,0,1,.17,1.09C77.21,77.63,76.79,77.8,76.54,78Z" transform="translate(-42.38 -25.07)"/>
  <path d="M149.6,90.24c-1.36,0-2.73,0-4.09,0-.79,0-1.25-.41-1.26-1s.42-1,1.25-1q4.09,0,8.19,0c.89,0,1.33.38,1.33,1s-.45,1-1.33,1c-1.36,0-2.72,0-4.09,0Z" transform="translate(-42.38 -25.07)"/>
  <path d="M150.59,71.82c.25.2.77.42.81.72a1.39,1.39,0,0,1-.46,1.14,17.77,17.77,0,0,1-2.3,1.28c-1.84.94-3.68,1.85-5.51,2.8a1,1,0,0,1-1.46-.35A1,1,0,0,1,142.2,76c2.55-1.35,5.12-2.66,7.69-4A6.1,6.1,0,0,1,150.59,71.82Z" transform="translate(-42.38 -25.07)"/>
  <path d="M69.25,90.21c-1.39,0-2.78,0-4.17,0-.86,0-1.29-.34-1.28-1s.43-1,1.25-1l8.34,0a1.8,1.8,0,0,1,.4,0c.59.11,1,.44.93,1.09a1,1,0,0,1-1.06,1H69.25Z" transform="translate(-42.38 -25.07)"/>
  <path d="M79.81,56.82c0-.91.73-1.4,1.38-1a3.24,3.24,0,0,1,.89.8c1.53,1.92,3,3.86,4.55,5.8.53.68.53,1.28,0,1.69s-1.06.27-1.59-.4c-1.62-2-3.22-4.06-4.82-6.1A4.18,4.18,0,0,1,79.81,56.82Z" transform="translate(-42.38 -25.07)"/>
  <path d="M133.06,64.37c-.34-.24-.77-.39-.9-.67a1.18,1.18,0,0,1,.11-1c1.7-2.23,3.45-4.42,5.19-6.61a.88.88,0,0,1,1.27-.26.93.93,0,0,1,.27,1.45c-1.35,1.78-2.71,3.57-4.07,5.34a11,11,0,0,1-1,1.17A4.69,4.69,0,0,1,133.06,64.37Z" transform="translate(-42.38 -25.07)"/>
  <path d="M63.59,82.61l5.81,1c.47.08.95.12,1.43.21a1.13,1.13,0,0,1,1,1.26,1.11,1.11,0,0,1-1.41.79l-7-1.26c-.77-.13-1.13-.54-1-1.17S63,82.59,63.59,82.61Z" transform="translate(-42.38 -25.07)"/>
  <path d="M148.28,85.86c-.71,0-1.22-.27-1.27-.92s.51-1,1.12-1.13c2-.35,4-.66,5.92-1,.4-.07.79-.16,1.19-.21a1,1,0,0,1,1.23.75,1,1,0,0,1-.78,1.21,13.53,13.53,0,0,1-1.57.26l-5.2.93Z" transform="translate(-42.38 -25.07)"/>
  <path d="M85.92,52.7a3.13,3.13,0,0,1,.78.69c1.07,1.65,2.1,3.33,3.15,5,.33.53.36,1-.19,1.39a1.05,1.05,0,0,1-1.53-.36c-.39-.57-.74-1.17-1.11-1.75-.7-1.14-1.41-2.26-2.1-3.41C84.47,53.52,84.88,52.73,85.92,52.7Z" transform="translate(-42.38 -25.07)"/>
  <path d="M133.13,52.77c.92,0,1.48.75,1.11,1.38-1.08,1.81-2.21,3.58-3.36,5.35a1,1,0,0,1-1.46.29.9.9,0,0,1-.2-1.39c1.1-1.73,2.2-3.46,3.32-5.17A2.11,2.11,0,0,1,133.13,52.77Z" transform="translate(-42.38 -25.07)"/>
  <path d="M82.72,75.18c-.23.29-.37.66-.61.73a1.38,1.38,0,0,1-1.1,0c-1.5-1.29-3-2.62-4.36-4a1.31,1.31,0,0,1,0-1.19c.25-.47.79-.42,1.2-.14a13.31,13.31,0,0,1,1.38,1.1c1,.88,2,1.78,3,2.7A4.36,4.36,0,0,1,82.72,75.18Z" transform="translate(-42.38 -25.07)"/>
  <path d="M142.67,71.39a4.11,4.11,0,0,1-.57.81c-1.25,1.16-2.53,2.31-3.81,3.43-.65.57-1.27.57-1.67,0s-.09-1.09.38-1.51l3.75-3.37a1,1,0,0,1,1.44-.13A3.24,3.24,0,0,1,142.67,71.39Z" transform="translate(-42.38 -25.07)"/>
  <path d="M152.76,93.22c.91,0,1.82,0,2.73,0,.67,0,1.1.31,1.11,1a1,1,0,0,1-1.08,1c-1.82,0-3.64,0-5.46,0a1,1,0,0,1-1.08-1,1,1,0,0,1,1.05-1Z" transform="translate(-42.38 -25.07)"/>
  <path d="M66,93.21h2.72a1,1,0,0,1,1.13,1c.05.61-.41,1-1.16,1h-5.2c-.88,0-1.33-.4-1.3-1.06s.45-.92,1.33-.92,1.65,0,2.48,0Z" transform="translate(-42.38 -25.07)"/>
  <path d="M90.7,50c.14.12.54.3.7.61.66,1.3,1.25,2.64,1.86,4a.74.74,0,0,1-.5,1.08c-.38.09-1.08,0-1.22-.32-.75-1.35-1.39-2.76-2-4.17C89.28,50.6,89.81,50,90.7,50Z" transform="translate(-42.38 -25.07)"/>
  <path d="M129.58,50.77a4.89,4.89,0,0,1-.19.7c-.61,1.24-1.2,2.5-1.85,3.72-.42.77-1.23.92-1.63.34a1.09,1.09,0,0,1-.09-.88c.59-1.37,1.25-2.71,1.87-4.06a.85.85,0,0,1,1.12-.52C129.13,50.2,129.36,50.56,129.58,50.77Z" transform="translate(-42.38 -25.07)"/>
  <path d="M150.58,98.07c1.35.2,2.43.34,3.51.53a1,1,0,0,1,.88,1.2,1,1,0,0,1-1.28.76c-1-.2-2.05-.37-3.08-.56-.52-.11-1-.42-.8-1C149.94,98.62,150.37,98.31,150.58,98.07Z" transform="translate(-42.38 -25.07)"/>
  <path d="M68.06,98.12a.93.93,0,0,1,1.09.81c.1.66-.34,1-.91,1.1-1.07.2-2.15.33-3.23.49-.59.09-1.09,0-1.25-.68s.33-1.06.91-1.18C65.76,98.44,66.87,98.3,68.06,98.12Z" transform="translate(-42.38 -25.07)"/>
  <path d="M114.49,132.79c.23-.24.49-.74.79-.77a1.23,1.23,0,0,1,1,.61,16.27,16.27,0,0,1,.59,2.79.79.79,0,0,1-.85.93,1.19,1.19,0,0,1-.93-.63A25.13,25.13,0,0,1,114.49,132.79Z" transform="translate(-42.38 -25.07)"/>
  <path d="M123.59,134c-.31.29-.58.73-.93.8a1.17,1.17,0,0,1-1-.45,12.44,12.44,0,0,1-.89-2.64,1,1,0,0,1,.49-.9c.37-.08,1,0,1.17.29A26.31,26.31,0,0,1,123.59,134Z" transform="translate(-42.38 -25.07)"/>
  <path d="M102.07,135.17c.14-.67.3-1.54.52-2.39.14-.52.49-1,1.11-.8s.74.68.63,1.27a18,18,0,0,1-.33,2,2.05,2.05,0,0,1-.71,1.07C102.69,136.67,102,136.12,102.07,135.17Z" transform="translate(-42.38 -25.07)"/>
  <path d="M110.46,134.45c0,.43,0,.85,0,1.28a.91.91,0,0,1-1,.94.83.83,0,0,1-.9-.9c0-.91,0-1.82,0-2.72a.8.8,0,0,1,.86-.85c.53,0,1,.2,1,.81s0,1,0,1.44Z" transform="translate(-42.38 -25.07)"/>
  <path d="M98.35,131.48a32.07,32.07,0,0,1-1.18,3c-.11.23-.75.36-1.09.28a1,1,0,0,1-.54-.82,14.19,14.19,0,0,1,.92-2.71,1.23,1.23,0,0,1,1-.5C97.78,130.76,98,131.2,98.35,131.48Z" transform="translate(-42.38 -25.07)"/>
  <path d="M97.24,50.88c-.24.22-.49.65-.8.69a1.21,1.21,0,0,1-1-.47,10.5,10.5,0,0,1-.71-2.52,1.18,1.18,0,0,1,.57-.91.87.87,0,0,1,1.21.48C96.78,49,97,49.83,97.24,50.88Z" transform="translate(-42.38 -25.07)"/>
  <path d="M124.33,48.34a24.78,24.78,0,0,1-.89,2.78,1.13,1.13,0,0,1-1,.41,1.15,1.15,0,0,1-.63-.92,11.8,11.8,0,0,1,.57-2.4.8.8,0,0,1,1.13-.58A3.82,3.82,0,0,1,124.33,48.34Z" transform="translate(-42.38 -25.07)"/>
  <path d="M51.45,101.05a1.6,1.6,0,0,1-1.51,1.37,1.32,1.32,0,0,1-1.31-1.25A1.37,1.37,0,0,1,50,99.83,1.35,1.35,0,0,1,51.45,101.05Z" transform="translate(-42.38 -25.07)"/>
  <path d="M54.24,68.48a1.42,1.42,0,0,1-1.38-1.3,1.31,1.31,0,1,1,2.62-.07A1.24,1.24,0,0,1,54.24,68.48Z" transform="translate(-42.38 -25.07)"/>
  <path d="M164.64,68.42a1.25,1.25,0,0,1-1.23-1.31,1.32,1.32,0,0,1,1.4-1.32A1.21,1.21,0,0,1,166,67,1.39,1.39,0,0,1,164.64,68.42Z" transform="translate(-42.38 -25.07)"/>
  <path d="M170,101.2a1.32,1.32,0,0,1-1.32,1.23,1.36,1.36,0,0,1-1.33-1.31,1.3,1.3,0,0,1,1.31-1.31A1.36,1.36,0,0,1,170,101.2Z" transform="translate(-42.38 -25.07)"/>
  <path d="M73.89,43.76a1.32,1.32,0,0,1-1.19,1.35,1.36,1.36,0,0,1-1.34-1.4,1.25,1.25,0,0,1,1.13-1.31A1.43,1.43,0,0,1,73.89,43.76Z" transform="translate(-42.38 -25.07)"/>
  <path d="M81.33,142.44a1.25,1.25,0,0,1,1.24,1.29,1.42,1.42,0,0,1-1.3,1.38,1.34,1.34,0,0,1,.06-2.67Z" transform="translate(-42.38 -25.07)"/>
  <path d="M127.93,149.29a1.35,1.35,0,0,1-1.31-1.33,1.28,1.28,0,0,1,1.24-1.3,1.3,1.3,0,0,1,1.3,1.33A1.23,1.23,0,0,1,127.93,149.29Z" transform="translate(-42.38 -25.07)"/>
  <path d="M53.15,72.88a1.21,1.21,0,0,1-1.28,1.24,1.27,1.27,0,1,1,1.28-1.24Z" transform="translate(-42.38 -25.07)"/>
  <path d="M90.93,146.6a1.41,1.41,0,0,1,1.33,1.33,1.34,1.34,0,0,1-1.2,1.36,1.38,1.38,0,0,1-1.37-1.36A1.35,1.35,0,0,1,90.93,146.6Z" transform="translate(-42.38 -25.07)"/>
  <path d="M70,47a1.27,1.27,0,0,1-1.34,1.19,1.37,1.37,0,0,1-1.32-1.33,1.31,1.31,0,0,1,1.33-1.21A1.47,1.47,0,0,1,70,47Z" transform="translate(-42.38 -25.07)"/>
  <path d="M78.16,41a1.29,1.29,0,0,1-1.31,1.22,1.35,1.35,0,0,1-1.28-1.37,1.28,1.28,0,0,1,1.21-1.25A1.5,1.5,0,0,1,78.16,41Z" transform="translate(-42.38 -25.07)"/>
  <path d="M87.39,35.94a1.3,1.3,0,0,1-1.26,1.28,1.36,1.36,0,0,1-1.28-1.37,1.2,1.2,0,0,1,1.26-1.25A1.29,1.29,0,0,1,87.39,35.94Z" transform="translate(-42.38 -25.07)"/>
  <path d="M134,35.78a1.38,1.38,0,0,1-1.23,1.42,1.42,1.42,0,0,1-1.36-1.31,1.4,1.4,0,0,1,1.31-1.35A1.26,1.26,0,0,1,134,35.78Z" transform="translate(-42.38 -25.07)"/>
  <path d="M87.42,146.15a1.27,1.27,0,1,1-1.31-1.27A1.2,1.2,0,0,1,87.42,146.15Z" transform="translate(-42.38 -25.07)"/>
  <path d="M50.59,96a1.28,1.28,0,0,1-1.31,1.23,1.27,1.27,0,1,1,0-2.53A1.35,1.35,0,0,1,50.59,96Z" transform="translate(-42.38 -25.07)"/>
  <path d="M168.84,106.87a1.39,1.39,0,0,1-1.25,1.32,1.36,1.36,0,0,1-1.39-1.26,1.19,1.19,0,0,1,1.23-1.28A1.35,1.35,0,0,1,168.84,106.87Z" transform="translate(-42.38 -25.07)"/>
  <path d="M56.66,118.06a1.4,1.4,0,0,1-1.33,1.33A1.27,1.27,0,0,1,54,118.18a1.33,1.33,0,0,1,2.66-.12Z" transform="translate(-42.38 -25.07)"/>
  <path d="M134,146.19a1.32,1.32,0,0,1-1.21,1.33,1.35,1.35,0,0,1-1.31-1.41,1.22,1.22,0,0,1,1.21-1.23A1.27,1.27,0,0,1,134,146.19Z" transform="translate(-42.38 -25.07)"/>
  <path d="M137.46,37a1.31,1.31,0,0,1,1.28,1.27,1.4,1.4,0,0,1-1.3,1.44,1.34,1.34,0,0,1-1.22-1.41A1.32,1.32,0,0,1,137.46,37Z" transform="translate(-42.38 -25.07)"/>
  <path d="M54,112.62a1.46,1.46,0,0,1-1.38,1.3,1.4,1.4,0,0,1-1.26-1.32,1.34,1.34,0,0,1,1.27-1.28A1.43,1.43,0,0,1,54,112.62Z" transform="translate(-42.38 -25.07)"/>
  <path d="M167.28,112.63A1.33,1.33,0,0,1,166,113.9a1.37,1.37,0,0,1-1.35-1.23,1.29,1.29,0,0,1,1.27-1.34A1.42,1.42,0,0,1,167.28,112.63Z" transform="translate(-42.38 -25.07)"/>
  <path d="M123,147.9a1.37,1.37,0,0,1,1.31,1.34,1.26,1.26,0,1,1-2.52,0A1.27,1.27,0,0,1,123,147.9Z" transform="translate(-42.38 -25.07)"/>
  <path d="M146.32,42.41a1.33,1.33,0,0,1,1.21,1.26,1.41,1.41,0,0,1-1.36,1.39A1.29,1.29,0,0,1,145,43.71,1.34,1.34,0,0,1,146.32,42.41Z" transform="translate(-42.38 -25.07)"/>
  <path d="M81.32,37a1.32,1.32,0,0,1,0,2.63,1.39,1.39,0,0,1-1.29-1.36A1.3,1.3,0,0,1,81.32,37Z" transform="translate(-42.38 -25.07)"/>
  <path d="M136.31,143.7a1.24,1.24,0,0,1,1.25-1.28,1.39,1.39,0,0,1,1.29,1.28,1.43,1.43,0,0,1-1.28,1.39A1.37,1.37,0,0,1,136.31,143.7Z" transform="translate(-42.38 -25.07)"/>
  <path d="M163.46,61.43A1.43,1.43,0,0,1,162,62.78a1.3,1.3,0,0,1-1.2-1.27,1.33,1.33,0,0,1,1.32-1.32A1.25,1.25,0,0,1,163.46,61.43Z" transform="translate(-42.38 -25.07)"/>
  <path d="M151.51,46.89a1.38,1.38,0,0,1-1.38,1.29,1.26,1.26,0,0,1-1.21-1.25,1.3,1.3,0,0,1,1.31-1.31A1.28,1.28,0,0,1,151.51,46.89Z" transform="translate(-42.38 -25.07)"/>
  <path d="M76.68,139.79A1.18,1.18,0,0,1,77.93,141a1.45,1.45,0,0,1-1.28,1.47,1.27,1.27,0,0,1-1.26-1.19A1.42,1.42,0,0,1,76.68,139.79Z" transform="translate(-42.38 -25.07)"/>
  <path d="M170.86,96a1.24,1.24,0,0,1-1.3,1.22,1.22,1.22,0,0,1-1.3-1.23,1.24,1.24,0,0,1,1.26-1.27A1.28,1.28,0,0,1,170.86,96Z" transform="translate(-42.38 -25.07)"/>
  <path d="M143.42,141.07a1.27,1.27,0,1,1-2.54,0,1.17,1.17,0,0,1,1.1-1.31A1.42,1.42,0,0,1,143.42,141.07Z" transform="translate(-42.38 -25.07)"/>
  <path d="M164.75,118.1a1.26,1.26,0,0,1-1.24,1.29,1.28,1.28,0,1,1,0-2.55A1.24,1.24,0,0,1,164.75,118.1Z" transform="translate(-42.38 -25.07)"/>
  <path d="M167,71.58a1.33,1.33,0,0,1,1.35,1.2,1.35,1.35,0,0,1-1.22,1.35,1.31,1.31,0,0,1-1.39-1.25A1.36,1.36,0,0,1,167,71.58Z" transform="translate(-42.38 -25.07)"/>
  <path d="M56.74,60.18a1.34,1.34,0,0,1,1.34,1.23,1.28,1.28,0,0,1-2.55.12A1.34,1.34,0,0,1,56.74,60.18Z" transform="translate(-42.38 -25.07)"/>
  <path d="M123,31.58a1.38,1.38,0,0,1,1.32,1.34A1.41,1.41,0,0,1,123,34.23a1.33,1.33,0,0,1,0-2.65Z" transform="translate(-42.38 -25.07)"/>
  <path d="M97.06,149.19a1.34,1.34,0,0,1-1.28,1.37,1.23,1.23,0,0,1-1.2-1.24,1.25,1.25,0,1,1,2.48-.13Z" transform="translate(-42.38 -25.07)"/>
  <path d="M52.54,106.86a1.38,1.38,0,0,1-1.26,1.31A1.31,1.31,0,0,1,50,106.93a1.29,1.29,0,0,1,1.15-1.3A1.37,1.37,0,0,1,52.54,106.86Z" transform="translate(-42.38 -25.07)"/>
  <path d="M128,35.45a1.32,1.32,0,0,1-1.29-1.26,1.3,1.3,0,0,1,1.19-1.35,1.25,1.25,0,0,1,1.28,1.24A1.33,1.33,0,0,1,128,35.45Z" transform="translate(-42.38 -25.07)"/>
  <path d="M73.53,138a1.35,1.35,0,0,1-1.24,1.32A1.41,1.41,0,0,1,71.05,138a1.33,1.33,0,0,1,1.37-1.27A1.15,1.15,0,0,1,73.53,138Z" transform="translate(-42.38 -25.07)"/>
  <path d="M94.5,32.88a1.17,1.17,0,0,1,1.2-1.22,1.28,1.28,0,0,1,0,2.56A1.24,1.24,0,0,1,94.5,32.88Z" transform="translate(-42.38 -25.07)"/>
  <path d="M141.94,42.26A1.27,1.27,0,0,1,140.71,41a1.32,1.32,0,0,1,1.34-1.29,1.24,1.24,0,0,1,1.2,1.24A1.42,1.42,0,0,1,141.94,42.26Z" transform="translate(-42.38 -25.07)"/>
  <path d="M119.51,31.79a1.24,1.24,0,0,1-2.48,0,1.26,1.26,0,0,1,1.17-1.27A1.28,1.28,0,0,1,119.51,31.79Z" transform="translate(-42.38 -25.07)"/>
  <path d="M92.07,34.25a1.25,1.25,0,0,1-1.23,1.22,1.32,1.32,0,0,1-1.27-1.29,1.18,1.18,0,0,1,1.17-1.25A1.35,1.35,0,0,1,92.07,34.25Z" transform="translate(-42.38 -25.07)"/>
  <path d="M159.82,56a1.36,1.36,0,0,1-1.35,1.32,1.19,1.19,0,0,1-1.18-1.17,1.27,1.27,0,0,1,2.53-.15Z" transform="translate(-42.38 -25.07)"/>
  <path d="M169.94,79.18a1.28,1.28,0,0,1-1.31,1.22,1.38,1.38,0,0,1-1.23-1.25,1.27,1.27,0,0,1,2.54,0Z" transform="translate(-42.38 -25.07)"/>
  <path d="M51.4,79.13a1.38,1.38,0,0,1-1.3,1.27,1.32,1.32,0,0,1-1.23-1.24,1.22,1.22,0,0,1,1.28-1.23A1.27,1.27,0,0,1,51.4,79.13Z" transform="translate(-42.38 -25.07)"/>
  <path d="M119.47,150.17a1.35,1.35,0,0,1-1.27,1.29,1.28,1.28,0,0,1-1.22-1.3,1.26,1.26,0,0,1,1.25-1.2A1.28,1.28,0,0,1,119.47,150.17Z" transform="translate(-42.38 -25.07)"/>
  <path d="M145.09,137.94a1.31,1.31,0,0,1,1.25-1.29,1.37,1.37,0,0,1,1.22,1.35,1.39,1.39,0,0,1-1.27,1.21A1.31,1.31,0,0,1,145.09,137.94Z" transform="translate(-42.38 -25.07)"/>
  <path d="M65.41,51.86a1.47,1.47,0,0,1-1.34-1.34,1.14,1.14,0,0,1,1.13-1.18,1.47,1.47,0,0,1,1.37,1.31A1.32,1.32,0,0,1,65.41,51.86Z" transform="translate(-42.38 -25.07)"/>
  <path d="M101.79,150.24a1.23,1.23,0,0,1-2.45.08,1.31,1.31,0,0,1,1.23-1.31A1.23,1.23,0,0,1,101.79,150.24Z" transform="translate(-42.38 -25.07)"/>
  <path d="M155,50.51a1.23,1.23,0,0,1-1.23,1.3,1.2,1.2,0,0,1-1.23-1.12,1.36,1.36,0,0,1,1.22-1.35A1.16,1.16,0,0,1,155,50.51Z" transform="translate(-42.38 -25.07)"/>
  <path d="M60.32,54.87a1.34,1.34,0,0,1,1.33,1.23,1.24,1.24,0,0,1-1.21,1.23,1.29,1.29,0,0,1-1.29-1.26A1.26,1.26,0,0,1,60.32,54.87Z" transform="translate(-42.38 -25.07)"/>
  <path d="M101.72,31.87a1.26,1.26,0,0,1-1.26,1.18,1.22,1.22,0,0,1-1.17-1.33,1.19,1.19,0,0,1,1.2-1.14A1.24,1.24,0,0,1,101.72,31.87Z" transform="translate(-42.38 -25.07)"/>
  <path d="M67.15,132.54A1.19,1.19,0,0,1,66,133.81a1.35,1.35,0,0,1-1.28-1.28A1.24,1.24,0,0,1,66,131.42,1.12,1.12,0,0,1,67.15,132.54Z" transform="translate(-42.38 -25.07)"/>
  <path d="M151.91,133.82a1.29,1.29,0,0,1-1.22-1.23,1.19,1.19,0,0,1,1.17-1.16,1.17,1.17,0,0,1,1.2,1.21A1.2,1.2,0,0,1,151.91,133.82Z" transform="translate(-42.38 -25.07)"/>
  <path d="M148.36,65.73a1.07,1.07,0,0,1,1.06,1.06,1.07,1.07,0,1,1-2.13,0A1.13,1.13,0,0,1,148.36,65.73Z" transform="translate(-42.38 -25.07)"/>
  <path d="M71.49,66.75a1.13,1.13,0,0,1-1,1.14,1.15,1.15,0,0,1-1.11-1,1.06,1.06,0,1,1,2.11-.09Z" transform="translate(-42.38 -25.07)"/>
  <path d="M127.15,131.08a.93.93,0,0,1,1-.88,1,1,0,0,1,1,1.07,1,1,0,0,1-1,1A1.21,1.21,0,0,1,127.15,131.08Z" transform="translate(-42.38 -25.07)"/>
  <path d="M91.76,131.34a1,1,0,0,1-1,.95,1,1,0,0,1,0-2.09C91.33,130.16,91.77,130.65,91.76,131.34Z" transform="translate(-42.38 -25.07)"/>
  <path d="M109.3,107.73a12.38,12.38,0,0,1-12.5-12.5,12.7,12.7,0,1,1,25.39.46C122,102,117.09,107.7,109.3,107.73Z" transform="translate(-42.38 -25.07)"/>
  <path d="M136.32,112.73l-5.32-9c-.88-1.47-1.77-2.93-2.65-4.39-.62-1-.6-1.71.06-2.21a1.33,1.33,0,0,1,2.16.44c1,1.62,2,3.27,3,4.92l6.26,10.44q.22.38.42.78a1.24,1.24,0,0,1-.81,1.82,3.65,3.65,0,0,1-.88.08l-31.57,0c-.3,0-.59,0-.89,0a1.39,1.39,0,1,1-.29-2.77,3.61,3.61,0,0,1,.87-.06l28.53,0Z" transform="translate(-42.38 -25.07)"/>
  <path d="M82.78,112.73c2.34,0,4.48,0,6.62,0,2.71,0,5.41,0,8.12,0a2.23,2.23,0,0,1,1.17.17,2.42,2.42,0,0,1,1,1.2,1.13,1.13,0,0,1-.91,1.32,3.54,3.54,0,0,1-1,.14q-8.73,0-17.45,0c-1.54,0-2.1-.93-1.31-2.25q4.36-7.29,8.77-14.56c.27-.46.51-.94.82-1.37A1.39,1.39,0,0,1,90.49,97a1.26,1.26,0,0,1,.42,1.87c-2.13,3.65-4.29,7.28-6.43,10.92Z" transform="translate(-42.38 -25.07)"/>
  <path d="M109.42,67.05c-1,1.66-1.84,3.15-2.72,4.64-1.53,2.63-3.06,5.27-4.6,7.89a6.12,6.12,0,0,1-.53.7,1.36,1.36,0,0,1-2.27-1.49c1.1-1.9,2.24-3.76,3.35-5.65,1.88-3.23,3.74-6.47,5.61-9.71.84-1.46,1.72-1.49,2.57,0q4.47,7.63,8.92,15.29a1.33,1.33,0,0,1-.34,2,1.47,1.47,0,0,1-2-.58c-1.47-2.45-2.89-4.94-4.36-7.39-1-1.65-2-3.27-3-4.9C109.87,67.6,109.69,67.41,109.42,67.05Z" transform="translate(-42.38 -25.07)"/>
  <path d="M93.31,106.72c.85,0,1.43,0,2,0,.87,0,1.35.5,1.34,1.26s-.43,1.19-1.36,1.2c-1.58,0-3.16,0-4.74,0a1.21,1.21,0,0,1-1.25-.67,1.18,1.18,0,0,1,.34-1.38c.88-1,1.74-2,2.61-2.94a7.41,7.41,0,0,1,.64-.61,1.05,1.05,0,0,1,1.51,0,1,1,0,0,1,.19,1.48C94.25,105.6,93.85,106.06,93.31,106.72Z" transform="translate(-42.38 -25.07)"/>
  <path d="M125.54,106.57c-.31-.38-.61-.78-.93-1.15-.65-.76-.68-1.27-.09-1.8a1.12,1.12,0,0,1,1.75.18c1.07,1.13,2.13,2.26,3.11,3.45a1.56,1.56,0,0,1,.25,1.23,1.06,1.06,0,0,1-1.18.75c-1.58,0-3.16,0-4.74-.06a1.21,1.21,0,1,1,0-2.38c.55,0,1.11,0,1.67,0Z" transform="translate(-42.38 -25.07)"/>
  <path d="M110.53,76c0,.54,0,1.07,0,1.61a1,1,0,0,1-2,0c0-1.07,0-2.14,0-3.22,0-.64.45-.89,1-.89s1,.25,1,.89,0,1.07,0,1.6Z" transform="translate(-42.38 -25.07)"/>
</svg>
